{"title":"Demons Never Die 2011 720p BRRiP AC3 XViD  - INSPiRAL","uid":7050891,"size":2562042655,"categoryP":"video","categoryS":"hd___movies","magnet":"?xt=urn:btih:efc1c54b542cb397ce6b787502e100f270580293&amp;dn=Demons+Never+Die+2011+720p+BRRiP+AC3+XViD++-+INSPiRAL&amp;tr=udp%3A%2F%2Ftracker.openbittorrent.com%3A80&amp;tr=udp%3A%2F%2Fopen.demonii.com%3A1337&amp;tr=udp%3A%2F%2Ftracker.coppersurfer.tk%3A6969&amp;tr=udp%3A%2F%2Fexodus.desync.com%3A6969","seeders":0,"leechers":1,"uploader":"TvTeam","files":5,"time":1329949531,"description":". \n &lt;a href=&quot;\nhttp://www.torrenting.com&quot; rel=&quot;nofollow&quot; target=&quot;_NEW&quot;&gt;\nhttp://www.torrenting.com&lt;/a&gt;          :     Once &amp; For all ;)\n\n\n               www . Torrenting . Com \n\n(((((((((((((= Enjoy No RAR releases =))))))))))))))))))))\n\n\n...................................NFO:....................................\n\n.[IMG]http://i.imgur.com/2mcr9.png[/IMG]\n\n \nTITLE: \n\nDemons Never Die 2011 720p BRRiP AC3 XViD  - INSPiRAL\n\nIMDB: \n &lt;a href=&quot;\nhttp://www.imdb.com/title/tt1777612/&quot; rel=&quot;nofollow&quot; target=&quot;_NEW&quot;&gt;\nhttp://www.imdb.com/title/tt1777612/&lt;/a&gt;\n\nSOURCES:\n\nVIDEO - 1080P WEST THANKS\nAUDIO - 1080P WEST THANKS\nSUBS  - None Add\n\nSTATS:\n\nVideo\nID                               : 0\nFormat                           : MPEG-4 Visual\nFormat profile                   : Advanced Simple@L5\nFormat settings, BVOP            : 2\nFormat settings, QPel            : No\nFormat settings, GMC             : No warppoints\nFormat settings, Matrix          : Default (MPEG)\nMuxing mode                      : Packed bitstream\nCodec ID                         : XVID\nCodec ID/Hint                    : XviD\nDuration                         : 1h 33mn\nBit rate                         : 3 121 Kbps\nWidth                            : 1 280 pixels\nHeight                           : 544 pixels\nDisplay aspect ratio             : 2.35:1\nFrame rate                       : 24.000 fps\nColor space                      : YUV\nChroma subsampling               : 4:2:0\nBit depth                        : 8 bits\nScan type                        : Progressive\nCompression mode                 : Lossy\nBits/(Pixel*Frame)               : 0.187\nStream size                      : 2.03 GiB (87%)\nWriting library                  : XviD 64\n\nAudio\nID                               : 1\nFormat                           : AC-3\nFormat/Info                      : Audio Coding 3\nMode extension                   : CM (complete main)\nCodec ID                         : 2000\nDuration                         : 1h 33mn\nBit rate mode                    : Constant\nBit rate                         : 448 Kbps\nChannel(s)                       : 6 channels\nChannel positions                : Front: L C R, Side: L R, LFE\nSampling rate                    : 48.0 KHz\nBit depth                        : 16 bits\nCompression mode                 : Lossy\nStream size                      : 298 MiB (13%)\nAlignment                        : Aligned on interleaves\nInterleave, duration             : 42 ms (1.00 video frame)\nInterleave, preload duration     : 512 ms\n\n\nNOTES:\n\nStraight forward rip off the 1080p ....nothing special done,just done the right way :)\nAudio encoded to AC3 448 from DTS and remuxed.\n\n\nSCREENS:\n\n[IMG]http://i.imgur.com/37nXT.png[/IMG]\n[IMG]http://i.imgur.com/pEP9G.png[/IMG]\n[IMG]http://i.imgur.com/dbWTM.png[/IMG]\n[IMG]http://i.imgur.com/981mp.png[/IMG]\n\n\nGREETZ: \n\nPast,Present and Future\n\n[IMG]http://i.imgur.com/2mcr9.png[/IMG]","torrent":{"xt":"urn:btih:efc1c54b542cb397ce6b787502e100f270580293","amp;dn":"Demons+Never+Die+2011+720p+BRRiP+AC3+XViD++-+INSPiRAL","amp;tr":["udp%3A%2F%2Ftracker.openbittorrent.com%3A80","udp%3A%2F%2Fopen.demonii.com%3A1337","udp%3A%2F%2Ftracker.coppersurfer.tk%3A6969","udp%3A%2F%2Fexodus.desync.com%3A6969"],"infoHash":"efc1c54b542cb397ce6b787502e100f270580293","infoHashBuffer":{"type":"Buffer","data":[239,193,197,75,84,44,179,151,206,107,120,117,2,225,0,242,112,88,2,147]},"announce":[],"urlList":[]}}